<svg width="49" height="30" viewBox="0 0 49 30" fill="none" xmlns="http://www.w3.org/2000/svg">
<path d="M23.5 2C24.749 2 26.9728 3.84815 28.4669 5.23621C29.4714 6.16936 30.7763 6.73926 32.1473 6.73926H42.5C45.2614 6.73926 47.5 8.97783 47.5 11.7393V17.7393C47.5 20.5007 45.2614 22.7393 42.5 22.7393H32.1882C30.7933 22.7393 29.468 23.3289 28.459 24.292C26.9649 25.718 24.7468 27.6111 23.5 27.6111M23.5 2C21.4999 2 12.5 2.3889 12.5 15C12.5 27.6111 21.4999 27.6111 23.5 27.6111M23.5 2V27.6111" stroke="#1E0C00" stroke-width="3"/>
<path d="M1 28L4.4641 26L7.9282 24" stroke="#1E0C00"/>
<path d="M1 2L4.4641 4L7.9282 6" stroke="#1E0C00"/>
<path d="M35 11V15V19" stroke="#1E0C00"/>
<path d="M38 11V15V19" stroke="#1E0C00"/>
<path d="M41 11V15V19" stroke="#1E0C00"/>
<path d="M0 15L4 15L8 15" stroke="#1E0C00"/>
</svg>
