<svg width="38" height="30" viewBox="0 0 38 30" fill="none" xmlns="http://www.w3.org/2000/svg">
<path d="M1.5 15C1.5 27.6111 10.4999 27.6111 12.5 27.6111V2C10.4999 2 1.5 2.3889 1.5 15Z" fill="#1E0C00"/>
<path d="M12.5 2C13.749 2 15.9728 3.84815 17.4669 5.23621C18.4714 6.16936 19.7763 6.73926 21.1473 6.73926H31.5C34.2614 6.73926 36.5 8.97783 36.5 11.7393V17.7393C36.5 20.5007 34.2614 22.7393 31.5 22.7393H21.1882C19.7933 22.7393 18.468 23.3289 17.459 24.292C15.9649 25.718 13.7468 27.6111 12.5 27.6111M12.5 2C10.4999 2 1.5 2.3889 1.5 15C1.5 27.6111 10.4999 27.6111 12.5 27.6111M12.5 2V27.6111" stroke="#1E0C00" stroke-width="3"/>
<path d="M24 11V15V19" stroke="#1E0C00"/>
<path d="M27 11V15V19" stroke="#1E0C00"/>
<path d="M30 11V15V19" stroke="#1E0C00"/>
</svg>
