<svg width="150" height="150" viewBox="0 0 150 150" fill="none" xmlns="http://www.w3.org/2000/svg">
<rect width="150" height="150" fill="#FEEED7"/>
<g filter="url(#filter0_di_330_87)">
<rect x="30" y="30" width="90" height="90" rx="10" fill="#F5AD35" shape-rendering="crispEdges"/>
<path d="M58.0096 90.5V91.5H53.8096V90.5H52.8096V54H53.8096V53H58.0096V54H59.0096V90.5H58.0096ZM67.5068 54H68.5068V53H76.1068V54H77.1068V55.5H78.1068V57.5H79.1068V59.5H80.1068V62H81.1068V64H82.1068V66H83.1068V68H84.1068V70.5H85.1068V72.5H86.1068V74.5H87.1068V77H88.1068V79H89.1068V81H90.1068V83.5H91.1068V54H92.1068V53H96.1068V54H97.1068V90.5H96.1068V91.5H88.5068V90.5H87.5068V89H86.5068V87H85.5068V85H84.5068V83H83.5068V80.5H82.5068V78H81.5068V76H80.5068V74H79.5068V72H78.5068V69.5H77.5068V67.5H76.5068V65.5H75.5068V63.5H74.5068V60.5H73.5068V90.5H72.5068V91.5H68.5068V90.5H67.5068V54Z" fill="black"/>
</g>
<path d="M84.4711 37.4796C86.0027 38.2589 87.6533 34.6978 91.5533 22.3272C95.6731 9.22942 96.1055 6.1851 94.0664 5.93197C91.2583 5.61847 82.0259 36.1556 84.4711 37.4796Z" fill="#1E1E1E"/>
<path d="M93.8238 41.3546C95.698 42.6134 98.8213 38.8374 107.193 25.3011C116.043 10.9671 117.391 7.51542 114.699 6.75436C110.983 5.74722 90.8516 39.2519 93.8238 41.3546Z" fill="#1E1E1E"/>
<path d="M64.8373 37.3871C66.3222 37.4979 65.2526 33.8 60.3247 21.6307C55.101 8.74965 53.5398 5.94947 52.0387 6.48236C49.9928 7.24664 62.4182 37.141 64.8373 37.3871Z" fill="#1E1E1E"/>
<path d="M73.1198 37.3916C74.9348 37.5902 75.4807 33.8001 75.5025 21.2449C75.516 7.95485 74.9824 5.04083 72.8172 5.49004C69.8467 6.14057 70.1964 37.0018 73.1198 37.3916Z" fill="#1E1E1E"/>
<path d="M55.6074 41.0842C57.6019 40.4668 55.3058 36.1467 45.8835 22.6534C35.9 8.37495 33.1655 5.48977 31.3024 6.96318C28.772 9.02137 52.3424 42.0036 55.6074 41.0842Z" fill="#1E1E1E"/>
<path d="M114.817 84.1782C113.982 85.7297 117.841 87.4241 131.237 91.4473C145.42 95.6974 148.714 96.1519 148.977 94.0822C149.302 91.2319 116.237 81.7015 114.817 84.1782Z" fill="#1E1E1E"/>
<path d="M108.846 94.5264C107.452 96.1789 111.746 99.0067 127.103 106.629C143.366 114.689 147.272 115.932 148.096 113.545C149.184 110.25 111.178 91.9071 108.846 94.5264Z" fill="#1E1E1E"/>
<path d="M115.155 63.6437C115.27 65.2511 119.306 64.6811 132.359 61.2642C146.174 57.6392 149.108 56.3853 148.257 54.6555C147.055 52.2919 115.042 61.0357 115.155 63.6437Z" fill="#1E1E1E"/>
<path d="M116.044 73.3209C115.804 74.9302 119.766 75.3448 132.924 75.1378C146.852 74.9102 149.915 74.3857 149.483 72.4784C148.855 69.8623 116.506 70.7278 116.044 73.3209Z" fill="#1E1E1E"/>
<path d="M112.186 54.9503C112.852 56.773 117.345 54.7267 131.355 46.2854C146.18 37.3413 149.168 34.8809 147.608 33.169C145.43 30.8435 111.191 51.9676 112.186 54.9503Z" fill="#1E1E1E"/>
<path d="M36.9306 63.157C37.8028 61.5212 33.766 59.7321 19.7533 55.4816C4.91705 50.9913 1.47175 50.5101 1.19758 52.6927C0.859694 55.6986 35.4479 65.7682 36.9306 63.157Z" fill="#1E1E1E"/>
<path d="M41.0749 53.476C42.4862 51.6759 38.226 48.6582 22.9623 40.5591C6.79921 31.9963 2.90951 30.6887 2.061 33.2774C0.938612 36.851 38.717 56.3304 41.0749 53.476Z" fill="#1E1E1E"/>
<path d="M34.7609 83.4287C34.6253 81.8144 30.6145 82.3404 17.6634 85.6201C3.95609 89.1001 1.05121 90.3249 1.92054 92.0702C3.14852 94.4557 34.9073 86.047 34.7609 83.4287Z" fill="#1E1E1E"/>
<path d="M34.8104 72.8382C35.0863 71.2482 31.0515 70.9045 17.6232 71.3245C3.40878 71.7773 0.273301 72.3446 0.678074 74.2174C1.27003 76.7855 34.2912 75.4016 34.8104 72.8382Z" fill="#1E1E1E"/>
<path d="M37.7319 92.124C37.0549 90.3087 32.5892 92.3144 18.6789 100.616C3.95927 109.412 0.996923 111.838 2.56419 113.549C4.75227 115.873 38.745 95.094 37.7319 92.124Z" fill="#1E1E1E"/>
<path d="M8.61577 7.43245C10.7799 11.948 12.2313 13.7538 18.6962 20.0276C37.8875 38.588 51.3134 52.8944 46.9727 44.0717C45.2185 40.4748 41.7191 36.771 19.4093 14.5465C7.06359 2.29936 5.74931 1.39878 8.61577 7.43245Z" fill="#1E1E1E"/>
<path d="M140.9 7.48247C139.296 12.0151 138.053 13.8468 132.275 20.2569C115.113 39.2226 103.288 53.7969 106.536 44.9371C107.845 41.3257 110.93 37.5517 130.792 14.8637C141.79 2.35945 143.016 1.42674 140.9 7.48247Z" fill="#1E1E1E"/>
<path d="M64.8041 112.468C63.6834 111.633 62.5764 115.274 60.0518 127.959C57.3855 141.39 57.1439 144.522 58.618 144.824C60.6473 145.204 66.5952 113.883 64.8041 112.468Z" fill="#1E1E1E"/>
<path d="M55.0834 108.6C53.2786 107.319 50.2255 111.221 42.0157 125.188C33.3357 139.977 32.0043 143.534 34.6047 144.297C38.1946 145.307 57.9448 110.741 55.0834 108.6Z" fill="#1E1E1E"/>
<path d="M88.0577 110.711C86.1309 110.887 86.6685 115.008 90.289 128.281C94.1312 142.329 95.5262 145.296 97.6256 144.361C100.496 143.042 91.1813 110.502 88.0577 110.711Z" fill="#1E1E1E"/>
<path d="M76.7644 112.555C75.0244 112.28 74.6706 116.182 75.2026 129.179C75.7748 142.937 76.4121 145.975 78.4576 145.593C81.2623 145.034 79.57 113.072 76.7644 112.555Z" fill="#1E1E1E"/>
<path d="M96.9034 107.122C94.7013 107.944 96.8576 112.622 106.025 127.085C115.74 142.39 118.478 145.435 120.603 143.665C123.493 141.197 100.501 105.879 96.9034 107.122Z" fill="#1E1E1E"/>
<path d="M145.262 139.452C143.314 134.809 141.861 133.014 135.176 126.927C115.322 108.928 101.592 94.9102 105.526 103.97C107.113 107.665 110.694 111.291 133.696 132.915C146.431 144.825 147.835 145.658 145.262 139.452Z" fill="#1E1E1E"/>
<path d="M5.5427 141.432C7.01611 136.514 8.33691 134.582 14.7015 127.954C33.6122 108.35 46.4824 93.159 43.4632 102.761C42.2518 106.676 38.8904 110.608 17.083 134.121C5.00132 147.076 3.60545 148.004 5.5427 141.432Z" fill="#1E1E1E"/>
<defs>
<filter id="filter0_di_330_87" x="26" y="26" width="98" height="102" filterUnits="userSpaceOnUse" color-interpolation-filters="sRGB">
<feFlood flood-opacity="0" result="BackgroundImageFix"/>
<feColorMatrix in="SourceAlpha" type="matrix" values="0 0 0 0 0 0 0 0 0 0 0 0 0 0 0 0 0 0 127 0" result="hardAlpha"/>
<feOffset dy="4"/>
<feGaussianBlur stdDeviation="2"/>
<feComposite in2="hardAlpha" operator="out"/>
<feColorMatrix type="matrix" values="0 0 0 0 0 0 0 0 0 0 0 0 0 0 0 0 0 0 0.25 0"/>
<feBlend mode="normal" in2="BackgroundImageFix" result="effect1_dropShadow_330_87"/>
<feBlend mode="normal" in="SourceGraphic" in2="effect1_dropShadow_330_87" result="shape"/>
<feColorMatrix in="SourceAlpha" type="matrix" values="0 0 0 0 0 0 0 0 0 0 0 0 0 0 0 0 0 0 127 0" result="hardAlpha"/>
<feOffset dy="-4"/>
<feGaussianBlur stdDeviation="2"/>
<feComposite in2="hardAlpha" operator="arithmetic" k2="-1" k3="1"/>
<feColorMatrix type="matrix" values="0 0 0 0 0 0 0 0 0 0 0 0 0 0 0 0 0 0 0.25 0"/>
<feBlend mode="normal" in2="shape" result="effect2_innerShadow_330_87"/>
</filter>
</defs>
</svg>
