<svg width="512" height="513" viewBox="0 0 512 513" fill="none" xmlns="http://www.w3.org/2000/svg">
<rect x="0.00195312" y="0.798218" width="512" height="512" fill="#FEEED7"/>
<g filter="url(#filter0_di_342_28)">
<rect x="102.402" y="103.198" width="307.2" height="307.2" rx="50" fill="#F5AD35" shape-rendering="crispEdges"/>
<path d="M198.234 308.098V311.498H183.954V308.098H180.554V183.998H183.954V180.598H198.234V183.998H201.634V308.098H198.234ZM230.525 183.998H233.925V180.598H259.765V183.998H263.165V189.098H266.565V195.898H269.965V202.698H273.365V211.198H276.765V217.998H280.165V224.798H283.565V231.598H286.965V240.098H290.365V246.898H293.765V253.698H297.165V262.198H300.565V268.998H303.965V275.798H307.365V284.298H310.765V183.998H314.165V180.598H327.765V183.998H331.165V308.098H327.765V311.498H301.925V308.098H298.525V302.998H295.125V296.198H291.725V289.398H288.325V282.598H284.925V274.098H281.525V265.598H278.125V258.798H274.725V251.998H271.325V245.198H267.925V236.698H264.525V229.898H261.125V223.098H257.725V216.298H254.325V206.098H250.925V308.098H247.525V311.498H233.925V308.098H230.525V183.998Z" fill="black"/>
</g>
<defs>
<filter id="filter0_di_342_28" x="98.402" y="99.1981" width="315.2" height="355.2" filterUnits="userSpaceOnUse" color-interpolation-filters="sRGB">
<feFlood flood-opacity="0" result="BackgroundImageFix"/>
<feColorMatrix in="SourceAlpha" type="matrix" values="0 0 0 0 0 0 0 0 0 0 0 0 0 0 0 0 0 0 127 0" result="hardAlpha"/>
<feOffset dy="40"/>
<feGaussianBlur stdDeviation="2"/>
<feComposite in2="hardAlpha" operator="out"/>
<feColorMatrix type="matrix" values="0 0 0 0 0 0 0 0 0 0 0 0 0 0 0 0 0 0 0.25 0"/>
<feBlend mode="normal" in2="BackgroundImageFix" result="effect1_dropShadow_342_28"/>
<feBlend mode="normal" in="SourceGraphic" in2="effect1_dropShadow_342_28" result="shape"/>
<feColorMatrix in="SourceAlpha" type="matrix" values="0 0 0 0 0 0 0 0 0 0 0 0 0 0 0 0 0 0 127 0" result="hardAlpha"/>
<feOffset dy="-40"/>
<feGaussianBlur stdDeviation="2"/>
<feComposite in2="hardAlpha" operator="arithmetic" k2="-1" k3="1"/>
<feColorMatrix type="matrix" values="0 0 0 0 0 0 0 0 0 0 0 0 0 0 0 0 0 0 0.25 0"/>
<feBlend mode="normal" in2="shape" result="effect2_innerShadow_342_28"/>
</filter>
</defs>
</svg>
